<?xml version="1.0" standalone="no"?>
<!DOCTYPE svg PUBLIC "-//W3C//DTD SVG 20010904//EN"
 "http://www.w3.org/TR/2001/REC-SVG-20010904/DTD/svg10.dtd">
<svg version="1.0" xmlns="http://www.w3.org/2000/svg"
 width="500.000000pt" height="500.000000pt" viewBox="0 0 500.000000 500.000000"
 preserveAspectRatio="xMidYMid meet">

<g transform="translate(0.000000,500.000000) scale(0.100000,-0.100000)"
fill="#000000" stroke="none">
<path d="M2290 4429 c-462 -53 -890 -266 -1204 -599 -382 -406 -572 -968 -515
-1520 69 -673 477 -1258 1083 -1550 199 -96 357 -144 576 -176 173 -25 491
-15 655 20 766 163 1348 745 1511 1510 35 165 45 483 20 656 -82 565 -379
1032 -864 1359 -93 62 -328 174 -450 214 -256 83 -556 115 -812 86z m587 -73
c373 -81 686 -250 948 -511 574 -575 727 -1427 384 -2145 -567 -1189 -2122
-1462 -3045 -535 -267 268 -442 592 -520 959 -35 166 -44 466 -20 636 32 216
85 387 178 575 257 517 732 892 1286 1015 154 34 218 39 447 36 193 -3 235 -7
342 -30z"/>
<path d="M2330 4335 c-8 -2 -55 -9 -105 -15 -493 -67 -966 -371 -1259 -810
-121 -181 -221 -427 -268 -661 -20 -100 -23 -142 -23 -344 1 -210 3 -241 28
-356 14 -69 40 -168 57 -220 33 -100 148 -349 161 -349 7 0 545 314 557 325 1
1 -18 44 -43 97 -24 52 -57 139 -72 194 -26 93 -28 110 -28 304 0 194 2 211
28 304 119 428 458 750 891 847 125 28 368 28 492 0 227 -51 423 -158 584
-320 148 -149 251 -327 307 -527 26 -93 28 -110 28 -304 0 -194 -2 -211 -28
-304 -15 -55 -48 -142 -72 -194 -25 -53 -44 -96 -43 -97 2 -2 116 -69 253
-150 138 -81 264 -156 282 -166 l32 -20 49 98 c170 339 231 681 187 1053 -94
807 -697 1446 -1506 1596 -76 14 -449 29 -489 19z m349 -208 c5 -12 12 -57 16
-98 4 -42 10 -81 14 -87 4 -6 25 30 46 81 40 92 40 92 79 95 21 2 42 0 47 -5
5 -5 2 -53 -6 -108 -26 -176 -22 -165 -57 -165 -29 0 -30 2 -24 33 3 17 8 57
11 87 l5 55 -40 -83 c-38 -79 -40 -82 -67 -76 -36 9 -40 16 -48 87 -13 107
-21 120 -29 47 -12 -102 -17 -120 -35 -120 -38 1 -41 11 -26 115 26 180 20
165 66 165 32 0 41 -4 48 -23z m-296 -17 c84 -74 64 -211 -36 -249 -100 -38
-187 32 -187 150 0 46 4 55 39 90 36 36 43 39 94 39 48 0 61 -4 90 -30z m-391
-90 c28 -25 31 -31 18 -40 -22 -14 -46 -12 -60 5 -17 21 -56 19 -80 -5 -54
-54 15 -194 85 -174 26 8 45 33 45 59 0 21 42 50 54 38 11 -11 6 -53 -9 -82
-19 -39 -94 -75 -135 -66 -93 20 -150 146 -103 226 20 33 85 69 125 69 17 0
41 -12 60 -30z m1128 15 c35 -18 35 -22 15 -135 -8 -47 -15 -89 -15 -93 0 -5
32 29 72 76 l72 84 38 -16 c21 -9 38 -21 38 -27 0 -17 -110 -244 -118 -244 -5
0 -17 6 -28 14 -18 14 -18 16 19 90 20 42 37 79 37 82 0 6 -73 -72 -109 -117
-17 -21 -21 -22 -50 -10 -35 15 -34 4 -11 135 5 33 8 61 6 63 -1 2 -20 -33
-40 -77 -20 -44 -39 -80 -42 -80 -12 0 -44 21 -44 29 0 20 110 241 120 241 6
0 24 -7 40 -15z m-1496 -154 c16 -18 15 -20 -36 -57 -29 -21 -55 -39 -57 -41
-6 -4 29 -53 38 -53 4 0 28 16 53 35 44 33 46 33 62 16 16 -18 14 -21 -34 -56
-27 -20 -50 -40 -50 -45 0 -4 8 -18 18 -29 l17 -22 54 40 c30 23 57 41 60 41
4 0 11 -8 18 -18 10 -17 2 -26 -69 -76 -43 -31 -83 -54 -87 -51 -5 2 -43 52
-85 111 -71 98 -76 107 -59 119 13 9 113 85 139 104 0 1 9 -7 18 -18z m1900
-80 c16 -17 14 -22 -49 -95 -40 -48 -65 -86 -65 -101 0 -25 33 -55 61 -55 13
0 127 116 156 159 2 3 13 -5 25 -17 l21 -21 -58 -68 c-82 -95 -92 -103 -136
-103 -31 0 -47 8 -78 36 -45 40 -59 81 -39 118 16 31 128 166 138 166 4 0 15
-8 24 -19z m-2117 -249 l72 -127 -26 -27 -25 -27 -47 19 c-25 10 -85 34 -133
52 -48 18 -88 35 -88 38 0 3 8 15 18 27 l17 22 103 -45 c57 -25 105 -44 107
-42 2 2 -23 46 -55 97 -55 90 -57 96 -43 118 8 13 18 23 22 23 3 0 38 -57 78
-128z m2416 -52 c18 -29 18 -29 -33 -131 l-51 -101 82 57 82 58 18 -24 c20
-26 26 -20 -144 -137 l-68 -47 -20 25 c-10 14 -19 31 -19 38 0 7 20 53 45 102
25 49 45 92 45 95 0 2 -35 -20 -77 -50 l-78 -55 -18 21 c-10 12 -14 26 -10 30
19 19 209 148 218 149 6 0 19 -13 28 -30z m-2513 -260 c13 -8 8 -23 -31 -95
-25 -48 -48 -87 -50 -88 -3 -1 -60 26 -127 61 -118 61 -121 63 -110 87 6 14
15 25 19 25 5 0 51 -22 102 -50 52 -27 96 -50 98 -50 3 0 18 27 34 60 29 61
38 67 65 50z m2717 -90 c3 -11 4 -23 2 -27 -4 -8 -241 -115 -244 -111 -14 18
-26 53 -19 55 5 2 59 26 119 53 61 27 116 49 123 49 8 1 16 -8 19 -19z m96
-286 c15 -65 26 -118 25 -120 -2 -1 -12 -4 -23 -6 -16 -2 -22 5 -29 37 -5 22
-11 41 -12 43 -1 2 -50 -8 -109 -22 -59 -14 -111 -24 -116 -20 -5 3 -9 16 -9
29 0 21 9 25 106 49 59 14 108 27 110 29 2 2 -1 20 -7 40 -11 42 -6 57 20 57
14 0 23 -22 44 -116z m-2938 79 c-4 -16 -7 -28 -8 -29 -1 0 -22 -5 -47 -10
-41 -8 -45 -12 -54 -48 -9 -41 -9 -42 47 -79 15 -10 17 -17 8 -40 l-11 -28
-120 83 c-118 81 -127 91 -111 133 7 17 23 21 122 31 187 18 182 19 174 -13z
m-209 -342 l129 -49 3 -39 3 -38 -141 -47 -140 -46 0 32 0 33 98 28 c53 15
103 31 111 35 8 5 -29 22 -98 45 -108 35 -111 38 -111 66 0 16 4 29 9 29 4 0
66 -22 137 -49z m3194 -20 c0 -25 -8 -33 -55 -57 -30 -16 -55 -32 -55 -35 0
-4 25 -19 55 -35 46 -24 55 -33 55 -56 0 -16 -4 -28 -9 -28 -5 0 -44 20 -87
45 -66 37 -88 45 -131 45 -52 0 -53 0 -53 30 0 30 1 30 53 30 44 0 64 7 127
44 41 25 81 45 88 45 7 1 12 -11 12 -28z m-3066 -420 c9 -39 16 -77 16 -86 0
-28 -33 -12 -41 20 -4 17 -10 43 -13 59 -7 27 -8 28 -26 11 -19 -17 -20 -17
-26 0 -5 13 1 25 20 42 43 37 53 30 70 -46z m2870 43 c18 -18 22 -95 5 -125
-24 -45 -103 -40 -115 8 -8 32 1 100 16 118 16 20 75 19 94 -1z m-3029 -28
c31 -31 43 -91 24 -125 -11 -19 -24 -27 -52 -29 -32 -3 -39 1 -57 30 -36 59
-23 122 30 141 25 9 30 8 55 -17z m3181 16 c18 -11 -7 -167 -26 -167 -12 0
-14 13 -12 64 l3 63 -26 -6 c-40 -10 -29 21 15 41 31 14 32 14 46 5z"/>
<path d="M2245 4075 c-38 -38 -28 -142 15 -165 58 -31 110 5 110 75 0 55 -15
90 -47 104 -36 16 -51 14 -78 -14z"/>
<path d="M975 2875 c38 -31 51 -31 57 0 5 24 3 25 -41 25 l-46 -1 30 -24z"/>
<path d="M3906 2174 c-3 -9 -6 -33 -6 -55 0 -32 4 -39 19 -39 23 0 31 19 31
71 0 32 -4 39 -19 39 -10 0 -22 -7 -25 -16z"/>
<path d="M880 2131 c0 -42 17 -81 35 -81 22 0 28 24 18 67 -6 28 -14 39 -31
41 -19 3 -22 -1 -22 -27z"/>
<path d="M2360 3609 c-663 -81 -1110 -744 -940 -1393 81 -309 298 -574 585
-716 625 -310 1377 23 1570 695 91 315 35 659 -152 937 -123 183 -344 352
-558 425 -146 50 -352 71 -505 52z m398 -68 c403 -101 725 -448 797 -858 95
-547 -239 -1069 -782 -1221 -90 -25 -112 -27 -273 -27 -149 1 -187 4 -257 23
-387 105 -678 395 -780 777 -24 89 -27 118 -27 265 0 146 3 176 27 262 109
407 439 716 850 794 104 20 337 12 445 -15z"/>
<path d="M1931 3234 c-11 -15 -21 -36 -21 -48 1 -41 38 -103 91 -149 36 -32
48 -47 36 -47 -29 0 -122 65 -157 109 -37 45 -54 43 -65 -9 -13 -59 45 -133
135 -170 16 -7 30 -18 30 -25 0 -18 -127 9 -162 35 -27 20 -27 20 -38 1 -17
-32 -11 -67 15 -93 28 -28 63 -38 137 -38 28 0 47 -4 43 -9 -7 -13 -143 -43
-175 -39 -37 4 -40 -43 -6 -77 30 -30 59 -31 128 -5 81 31 86 24 19 -25 -68
-50 -129 -85 -148 -85 -29 0 -9 -46 29 -66 43 -22 87 -4 175 73 l73 64 -66
-98 c-72 -107 -123 -166 -168 -193 l-29 -18 26 -26 c31 -31 70 -33 113 -7 42
26 73 68 144 197 33 60 60 104 60 97 0 -21 -69 -253 -86 -286 -9 -17 -23 -40
-32 -50 -34 -38 39 -55 86 -20 53 39 78 105 116 303 l15 75 -2 -121 c-2 -119
-2 -120 20 -116 12 2 32 15 45 29 20 21 24 37 27 116 l4 92 18 -77 18 -77 -45
-78 c-25 -43 -58 -96 -72 -117 -15 -22 -26 -47 -24 -56 2 -11 -23 -41 -64 -78
-66 -61 -66 -61 -96 -46 -16 8 -34 26 -40 39 -6 14 -19 25 -28 25 -32 0 -80
-22 -90 -41 -9 -17 -7 -18 18 -13 21 4 31 2 35 -10 4 -9 15 -16 25 -16 10 0
27 -7 38 -16 18 -14 15 -15 -42 -10 -58 5 -62 4 -82 -24 -12 -16 -22 -39 -22
-51 0 -21 1 -21 19 -5 13 12 21 14 26 6 5 -8 14 -7 31 4 13 9 38 16 56 15 l33
-1 -39 -18 c-45 -21 -56 -35 -56 -75 0 -44 16 -64 24 -31 4 17 13 26 26 26 10
0 23 6 27 14 4 7 25 32 46 55 34 37 39 40 60 29 12 -7 26 -19 30 -25 4 -7 15
-13 23 -13 8 0 19 -10 23 -22 9 -23 9 -22 21 7 15 39 2 65 -39 79 -18 6 -33
16 -33 21 0 6 30 37 66 70 51 44 69 56 76 46 6 -11 11 -8 20 10 31 61 84 129
93 120 6 -6 12 -65 15 -133 4 -115 3 -124 -16 -141 -28 -25 -62 -14 -62 19 0
22 -3 23 -20 14 -11 -6 -23 -23 -26 -38 -4 -15 -11 -32 -16 -39 -12 -15 4 -45
38 -72 l27 -21 -67 0 c-77 0 -128 -18 -151 -53 -19 -30 -23 -83 -7 -99 9 -9
12 -7 12 10 0 11 10 30 22 41 21 21 21 21 35 1 10 -14 26 -20 52 -20 45 0 125
26 142 46 6 8 16 14 20 14 11 0 -15 -44 -44 -77 -18 -21 -18 -21 2 -28 12 -3
30 -3 41 0 15 5 20 2 20 -12 1 -26 37 -103 49 -103 14 0 38 48 46 93 6 31 10
35 25 27 19 -10 50 -4 50 10 0 4 -7 13 -16 21 -8 7 -22 25 -30 41 l-14 28 47
-30 c58 -37 131 -42 163 -10 11 11 24 20 29 20 15 0 51 -51 52 -74 0 -21 1
-21 9 -1 18 41 11 75 -24 112 -30 33 -38 37 -97 40 -86 6 -100 11 -69 26 27
14 50 64 35 75 -6 4 -17 21 -25 37 -19 36 -62 49 -53 16 4 -18 1 -21 -25 -21
-48 0 -59 40 -43 153 19 131 21 134 53 93 15 -19 39 -51 53 -71 15 -22 25 -31
25 -21 0 9 2 16 5 16 2 0 34 -29 71 -65 56 -55 65 -67 54 -80 -7 -8 -20 -15
-29 -15 -39 0 -55 -57 -26 -96 14 -18 14 -18 15 8 0 20 4 26 15 22 9 -4 25 4
40 20 13 14 28 26 33 26 5 0 29 -25 53 -55 24 -30 52 -55 61 -55 14 0 18 -8
18 -32 1 -31 1 -32 15 -14 18 24 20 97 3 114 -7 7 -20 12 -29 12 -9 0 -23 7
-30 17 -13 15 -10 15 26 9 22 -4 45 -12 52 -17 7 -7 19 -6 33 3 18 11 23 10
36 -6 14 -19 14 -19 14 2 0 13 -10 36 -22 52 -21 28 -23 29 -82 23 -56 -6 -60
-5 -47 10 7 10 24 17 37 17 13 0 28 9 34 21 7 12 18 18 26 15 22 -8 16 11 -8
28 -37 26 -68 20 -108 -24 -20 -22 -43 -40 -50 -40 -7 0 -42 29 -79 64 -52 51
-63 68 -54 77 10 10 6 20 -16 48 -16 20 -49 74 -74 121 l-46 85 14 58 c7 33
16 62 19 65 3 3 6 -25 6 -62 0 -36 6 -81 14 -100 13 -30 59 -76 76 -76 4 0 6
57 4 128 -5 137 8 143 20 9 15 -164 73 -277 144 -277 41 0 46 12 22 53 -11 19
-34 92 -50 163 -16 71 -32 137 -35 147 -4 9 -4 17 0 17 3 0 26 -43 51 -96 55
-119 97 -178 139 -198 45 -22 71 -20 96 5 l21 21 -34 28 c-32 26 -87 105 -166
238 -17 28 -29 52 -26 52 3 0 38 -33 77 -74 83 -85 122 -101 166 -69 14 11 27
32 29 46 3 23 -1 27 -21 27 -24 0 -212 128 -202 138 2 3 30 -6 62 -19 95 -38
165 -26 178 31 9 43 0 50 -61 50 -59 0 -144 18 -144 30 0 4 32 10 71 12 81 6
119 28 133 76 7 24 5 37 -8 56 l-16 25 -36 -24 c-34 -23 -79 -39 -131 -47 -40
-6 -26 16 27 44 61 32 87 53 106 90 19 37 17 72 -5 99 l-20 24 -16 -23 c-25
-35 -66 -70 -112 -97 -68 -40 -76 -29 -18 26 82 78 106 148 65 189 -25 25 -49
26 -56 3 -16 -53 -46 -91 -112 -146 -85 -69 -108 -108 -91 -156 6 -17 20 -36
30 -42 15 -8 17 -14 9 -29 -5 -10 -10 -28 -10 -39 0 -19 -4 -21 -39 -15 -28 4
-51 0 -86 -15 -45 -20 -48 -20 -71 -3 -29 21 -35 79 -6 67 48 -19 47 -19 36
-4 -6 8 -14 44 -18 81 -4 37 -9 75 -12 83 -5 11 1 15 21 15 26 0 27 1 13 18
-8 9 -27 39 -42 66 -26 49 -26 49 -6 63 24 17 27 38 4 29 -9 -4 -43 1 -75 10
-33 9 -76 14 -97 11 -48 -6 -140 -70 -148 -102 -8 -32 3 -50 22 -34 19 16 83
-3 109 -31 18 -20 18 -20 -71 -20 -56 0 -94 4 -102 12 -22 22 -26 -2 -5 -30
20 -26 24 -27 99 -25 64 1 74 0 54 -9 l-25 -11 31 -7 c17 -4 36 -10 42 -14 18
-11 14 -44 -8 -63 -13 -11 -16 -19 -9 -24 14 -8 -17 -59 -36 -59 -7 0 -24 -9
-39 -21 l-26 -20 -54 20 c-43 16 -62 18 -88 11 -18 -6 -34 -10 -35 -10 -2 0
-3 8 -3 18 0 9 -6 29 -14 43 -13 25 -12 28 15 48 60 44 43 113 -42 171 -59 40
-118 103 -121 128 0 9 -1 24 -2 32 -2 27 -42 23 -65 -6z"/>
<path d="M3616 1735 c-17 -30 -28 -56 -25 -58 9 -8 148 -87 153 -87 5 0 66
104 66 114 0 20 -28 0 -48 -34 -20 -35 -25 -39 -42 -30 -25 13 -25 21 1 64 17
29 18 36 6 36 -8 0 -24 -16 -36 -35 -18 -31 -23 -34 -41 -25 -25 13 -25 21 -1
62 19 29 19 48 3 48 -4 0 -20 -25 -36 -55z"/>
<path d="M1217 1734 l-77 -46 22 -40 c31 -55 61 -74 93 -60 15 7 25 20 25 33
0 15 4 19 16 15 22 -9 54 11 54 34 0 21 -40 110 -49 110 -4 -1 -41 -21 -84
-46z m95 -30 c9 -20 9 -27 -2 -34 -18 -11 -38 -2 -45 21 -14 43 28 55 47 13z
m-68 -33 c14 -25 14 -30 1 -41 -18 -15 -40 -7 -54 19 -9 16 -7 23 11 35 28 20
25 21 42 -13z"/>
<path d="M3510 1580 c-29 -29 -35 -67 -17 -104 18 -39 75 -69 112 -60 50 12
82 83 55 124 -14 21 -29 -3 -22 -36 10 -55 -52 -73 -100 -27 -45 43 -33 93 23
93 15 0 29 7 33 15 9 24 -59 20 -84 -5z"/>
<path d="M1354 1576 c-65 -29 -84 -101 -40 -153 19 -22 32 -28 66 -28 84 0
131 99 75 159 -13 14 -28 26 -34 26 -5 0 -15 2 -23 5 -7 2 -27 -2 -44 -9z m84
-38 c32 -32 0 -95 -60 -113 -27 -9 -58 21 -58 56 0 50 84 91 118 57z"/>
<path d="M3386 1442 c-3 -5 26 -39 64 -77 58 -57 70 -66 76 -51 5 13 -9 33
-52 77 -56 57 -77 69 -88 51z"/>
<path d="M1494 1376 c-43 -43 -46 -87 -7 -128 60 -62 163 -13 163 77 0 16 -12
38 -29 56 -41 41 -83 39 -127 -5z m108 -13 c25 -22 23 -46 -8 -82 -41 -50
-104 -39 -104 18 0 30 46 81 74 81 10 0 28 -7 38 -17z"/>
<path d="M3326 1382 c-3 -5 8 -43 23 -85 16 -43 27 -77 24 -77 -2 0 -33 21
-69 46 -52 37 -67 44 -79 34 -12 -10 -1 -21 67 -65 68 -44 84 -51 100 -42 10
7 18 14 18 17 0 3 -13 44 -28 90 -27 79 -43 103 -56 82z"/>
<path d="M1712 1264 c-29 -20 -28 -45 3 -82 28 -34 32 -60 10 -68 -20 -8 -43
12 -47 39 -4 28 -38 36 -38 10 0 -46 63 -88 107 -72 35 13 38 45 8 89 -28 40
-28 70 -1 70 9 0 20 -9 26 -20 6 -11 8 -20 4 -20 -3 0 -1 -7 6 -15 18 -22 34
-3 26 29 -3 14 -19 32 -36 41 -36 19 -40 19 -68 -1z"/>
<path d="M3097 1224 l-48 -25 42 -77 c51 -93 45 -86 64 -78 14 5 14 8 0 37
-13 24 -14 34 -4 45 16 20 29 18 59 -11 18 -17 33 -23 44 -19 15 6 14 10 -10
35 -15 16 -33 29 -39 29 -7 0 -10 12 -7 30 5 33 -12 60 -37 60 -9 -1 -38 -12
-64 -26z m73 -35 c0 -10 -10 -25 -22 -34 -21 -14 -24 -14 -35 2 -19 25 -16 39
10 50 28 13 47 6 47 -18z"/>
<path d="M1870 1190 c0 -6 11 -15 25 -20 14 -5 25 -12 25 -15 0 -3 -13 -38
-30 -76 -25 -59 -27 -71 -14 -76 18 -7 15 -12 49 70 16 37 33 66 39 64 43 -16
56 -17 56 -5 0 7 -29 25 -65 41 -70 29 -85 32 -85 17z"/>
<path d="M2935 1149 c-27 -11 -52 -22 -54 -25 -3 -3 13 -53 50 -151 l8 -22 61
22 c33 12 60 28 60 35 0 15 1 15 -51 -3 -44 -16 -58 -10 -59 23 0 11 11 17 69
38 10 3 11 8 4 15 -8 8 -22 7 -48 -2 -31 -12 -37 -11 -45 1 -17 26 -11 37 30
50 22 7 40 19 40 27 0 17 -5 16 -65 -8z"/>
<path d="M2045 1044 c-24 -80 -26 -104 -5 -104 8 0 60 151 60 172 0 3 -7 8
-15 11 -11 5 -20 -15 -40 -79z"/>
<path d="M2166 1078 c-9 -41 -26 -141 -26 -155 0 -7 6 -13 14 -13 13 0 36 74
36 117 0 30 17 0 40 -69 18 -58 25 -68 45 -68 21 0 24 7 35 73 6 39 14 80 16
90 4 12 0 17 -14 17 -17 0 -21 -9 -27 -60 -4 -33 -10 -62 -14 -65 -4 -2 -18
29 -31 70 -13 41 -27 75 -31 75 -4 0 -14 3 -23 6 -10 4 -17 -2 -20 -18z"/>
<path d="M2722 1084 c-22 -15 -29 -48 -14 -72 5 -7 26 -15 48 -19 62 -9 82
-33 44 -53 -14 -8 -26 -8 -41 0 -11 6 -27 10 -36 8 -15 -3 -15 -5 1 -20 37
-38 126 -11 126 37 0 33 -26 55 -64 55 -50 0 -73 30 -37 50 15 7 23 6 35 -5 8
-8 22 -12 31 -9 14 6 14 8 -1 25 -21 23 -62 24 -92 3z"/>
<path d="M2430 1058 c-13 -8 -30 -25 -38 -38 -16 -32 -9 -96 14 -121 20 -22
83 -26 102 -7 9 9 12 9 12 0 0 -7 7 -12 15 -12 11 0 15 12 15 45 0 45 0 45
-35 45 -38 0 -47 -14 -15 -23 27 -7 16 -35 -17 -43 -50 -13 -83 60 -53 117 14
26 66 26 82 -1 14 -23 38 -27 38 -7 0 43 -72 70 -120 45z"/>
</g>
</svg>
