<svg xmlns:xlink="http://www.w3.org/1999/xlink" xmlns="http://www.w3.org/2000/svg" version="1.1" id="Layer_1" x="0px" y="0px" viewBox="0 0 340.2 104.8" style="enable-background:new 0 0 340.2 104.8;" width="340.2"  height="104.8" >
  <style type="text/css">
	.st0{fill:url(#SVGID_1_);}
	.st1{fill:url(#SVGID_2_);}
	.st2{fill:url(#SVGID_3_);}
	.st3{fill:url(#SVGID_4_);}
	.st4{fill:url(#SVGID_5_);}
	.st5{fill:url(#SVGID_6_);}
	.st6{fill:url(#SVGID_7_);}
	.st7{fill:url(#SVGID_8_);}
	.st8{fill:url(#SVGID_9_);}
	.st9{fill:url(#SVGID_10_);}
	.st10{fill:url(#SVGID_11_);}
	.st11{fill:#1A1C20;}
</style>
  <linearGradient id="SVGID_2_" gradientUnits="userSpaceOnUse" x1="196.68" y1="37.7994" x2="196.68" y2="19.0703" gradientTransform="matrix(1 0 0 -1 0 106)">
    <stop offset="0" style="stop-color:#FFFFFF"/>
    <stop offset="1" style="stop-color:#9D9D9C"/>
  </linearGradient>
  <path class="st1" d="M191.3,67.2c-1.4,0-1.9,0.5-1.9,1.9V73c0,1.5,0.5,1.9,1.9,1.9H202c1.4,0,1.9-0.5,1.9-1.9v-3.9 c0-1.5-0.5-1.9-1.9-1.9L191.3,67.2z"/>
  <linearGradient id="SVGID_3_" gradientUnits="userSpaceOnUse" x1="309.4416" y1="93.5311" x2="216.2616" y2="22.9411" gradientTransform="matrix(1 0 0 -1 0 106)">
    <stop offset="0" style="stop-color:#00A1DD"/>
    <stop offset="0.22" style="stop-color:#0056A4"/>
    <stop offset="0.42" style="stop-color:#0056A4"/>
    <stop offset="1" style="stop-color:#42A1DA"/>
  </linearGradient>
  <path class="st2" d="M235.3,46.4c10.2,0,16.7,5.9,16.7,16.1c0,6.5-2.4,11.1-7.2,13.8c0.7,0.9,1.3,1.8,1.8,2.9l6,11.4 c1,1.8,0.4,3.3-1.8,3.3h-7.2c-3.5,0-5.1-0.8-6.2-3.2l-4.3-9.2c-1.3-2.4-2.4-3.4-5-3.4h-1.5v13c0,2.1-0.7,2.8-2.8,2.8h-7.6 c-2.1,0-2.9-0.7-2.9-2.8V49.2c0-2.1,0.7-2.8,2.9-2.8H235.3z M233.8,58.1h-7.2V67h7.2c2.3,0.2,4.3-1.5,4.4-3.8c0-0.2,0-0.5,0-0.7 C238.2,59.8,236.7,58.1,233.8,58.1z"/>
  <linearGradient id="SVGID_4_" gradientUnits="userSpaceOnUse" x1="325.698" y1="73.5626" x2="232.518" y2="2.9726" gradientTransform="matrix(1 0 0 -1 0 106)">
    <stop offset="0" style="stop-color:#00A1DD"/>
    <stop offset="0.22" style="stop-color:#0056A4"/>
    <stop offset="0.42" style="stop-color:#0056A4"/>
    <stop offset="1" style="stop-color:#42A1DA"/>
  </linearGradient>
  <path class="st3" d="M289.7,46.4c2.1,0,2.9,0.7,2.9,2.8v6c0,2.1-0.7,2.9-2.9,2.9H272v6h14.1c2.1,0,2.9,0.7,2.9,2.8v6 c0,2.1-0.7,2.9-2.9,2.9H272v6.4h18.3c2.1,0,2.8,0.7,2.8,2.8v6.1c0,2.1-0.7,2.8-2.8,2.8h-28.7c-2.1,0-2.9-0.7-2.9-2.8V49.2 c0-2.1,0.7-2.8,2.9-2.8H289.7z"/>
  <linearGradient id="SVGID_5_" gradientUnits="userSpaceOnUse" x1="337.3492" y1="59.671" x2="244.1692" y2="-10.909" gradientTransform="matrix(1 0 0 -1 0 106)">
    <stop offset="0" style="stop-color:#00A1DD"/>
    <stop offset="0.22" style="stop-color:#0056A4"/>
    <stop offset="0.42" style="stop-color:#0056A4"/>
    <stop offset="1" style="stop-color:#42A1DA"/>
  </linearGradient>
  <path class="st4" d="M320.6,46.4c10.5,0,17.3,6.2,17.3,16.8s-6.6,16.5-17.1,16.5h-8.2v11.4c0,2.1-0.7,2.8-2.8,2.8h-7.6 c-2.1,0-2.9-0.7-2.9-2.8V49.2c0-2.1,0.7-2.8,2.9-2.8H320.6z M319.1,68c3.1,0,5-1.9,5-4.9c0.2-2.6-1.7-4.8-4.3-5c-0.2,0-0.5,0-0.7,0 h-6.6V68H319.1z"/>
  <linearGradient id="SVGID_6_" gradientUnits="userSpaceOnUse" x1="228.9672" y1="73.6029" x2="232.0672" y2="55.2529" gradientTransform="matrix(1 0 0 -1 0 106)">
    <stop offset="0" style="stop-color:#00A1DD"/>
    <stop offset="0.22" style="stop-color:#0056A4"/>
    <stop offset="0.42" style="stop-color:#0056A4"/>
    <stop offset="1" style="stop-color:#42A1DA"/>
  </linearGradient>
  <path class="st5" d="M234.4,47.9c10.2,0,16.7,5.9,16.7,16.1c0.1,2.8-0.5,5.6-1.8,8.2c1.9-2.9,2.8-6.3,2.7-9.7 c0-10.2-6.4-16.2-16.7-16.2h-19.1c-1.8,0-2.6,0.5-2.8,1.9c0.6-0.3,1.2-0.4,1.9-0.4H234.4z"/>
  <linearGradient id="SVGID_7_" gradientUnits="userSpaceOnUse" x1="282.4067" y1="58.0204" x2="278.2667" y2="26.3904" gradientTransform="matrix(1 0 0 -1 0 106)">
    <stop offset="0" style="stop-color:#00A1DD"/>
    <stop offset="0.22" style="stop-color:#0056A4"/>
    <stop offset="0.42" style="stop-color:#0056A4"/>
    <stop offset="1" style="stop-color:#42A1DA"/>
  </linearGradient>
  <path class="st6" d="M271.1,65.6h14.1c2.1,0,2.9,0.7,2.9,2.8v6c0,0.3,0,0.7-0.1,1c0.7-0.4,1-1.2,1-2.5v-6c0-2.1-0.7-2.8-2.9-2.8H272 v-6l-0.9,0.8L271.1,65.6z"/>
  <linearGradient id="SVGID_8_" gradientUnits="userSpaceOnUse" x1="274.5692" y1="68.6499" x2="276.2692" y2="52.1399" gradientTransform="matrix(1 0 0 -1 0 106)">
    <stop offset="0" style="stop-color:#00A1DD"/>
    <stop offset="0.22" style="stop-color:#0056A4"/>
    <stop offset="0.42" style="stop-color:#0056A4"/>
    <stop offset="1" style="stop-color:#42A1DA"/>
  </linearGradient>
  <path class="st7" d="M288.8,47.9c2.1,0,2.9,0.7,2.9,2.8v6c0,0.3,0,0.7-0.1,1c0.7-0.4,1-1.2,1-2.5v-6c0-2.1-0.7-2.8-2.9-2.8h-28.1 c-1.8,0-2.6,0.5-2.8,1.9c0.6-0.3,1.2-0.4,1.9-0.4L288.8,47.9z"/>
  <linearGradient id="SVGID_9_" gradientUnits="userSpaceOnUse" x1="276.7755" y1="28.8427" x2="290.3255" y2="12.2827" gradientTransform="matrix(1 0 0 -1 0 106)">
    <stop offset="0" style="stop-color:#00A1DD"/>
    <stop offset="0.22" style="stop-color:#0056A4"/>
    <stop offset="0.42" style="stop-color:#0056A4"/>
    <stop offset="1" style="stop-color:#42A1DA"/>
  </linearGradient>
  <path class="st8" d="M290.3,82.2H272v-6.4l-0.9,0.9v7h18.3c2.1,0,2.8,0.7,2.8,2.8v6.1c0,0.3,0,0.6-0.1,0.9c0.7-0.4,1-1.2,1-2.5V85 C293.1,82.9,292.4,82.2,290.3,82.2z"/>
  <linearGradient id="SVGID_10_" gradientUnits="userSpaceOnUse" x1="308.9848" y1="80.1582" x2="319.9948" y2="47.9682" gradientTransform="matrix(1 0 0 -1 0 106)">
    <stop offset="0" style="stop-color:#00A1DD"/>
    <stop offset="0.22" style="stop-color:#0056A4"/>
    <stop offset="0.42" style="stop-color:#0056A4"/>
    <stop offset="1" style="stop-color:#42A1DA"/>
  </linearGradient>
  <path class="st9" d="M319.7,47.9c10.5,0,17.3,6.2,17.3,16.7c0.1,2.9-0.6,5.8-1.9,8.5c1.9-3,2.9-6.5,2.8-10 c0-10.5-6.8-16.8-17.3-16.8h-18.5c-1.8,0-2.6,0.5-2.8,1.9c0.6-0.3,1.2-0.4,1.9-0.4L319.7,47.9z"/>
  <linearGradient id="SVGID_11_" gradientUnits="userSpaceOnUse" x1="148.965" y1="54.45" x2="148.965" y2="100.5701" gradientTransform="matrix(1 0 0 -1 0 106)">
    <stop offset="0" style="stop-color:#00A1DD"/>
    <stop offset="0.22" style="stop-color:#0056A4"/>
    <stop offset="0.42" style="stop-color:#0056A4"/>
    <stop offset="1" style="stop-color:#42A1DA"/>
  </linearGradient>
  <path class="st10" d="M171.9,6.7c-0.2-1.3-0.9-2.5-2-3.2c-0.8-0.5-1.7-0.8-2.7-0.8h-36.2c-2.7,0-5,2.2-5,4.9v18.6l0.3,8 c0,2.3,1.7,4.3,4,4.7c0.2,0,0.4,0,0.6,0h5.9l-0.9,8.1c-0.1,0.9,0.6,1.7,1.5,1.8c0.5,0.1,0.9-0.1,1.3-0.4l10.5-9.5h18 c2.7,0,4.9-2.2,4.9-4.9V9.5c0-0.9-0.1-1.9-0.2-2.8H171.9z"/>
  <polygon class="st11" points="165.1,8.8 151.2,12.8 154.3,15.9 144,26.1 137.3,19.1 133,23.3 143.9,34.5 158.4,20 161.5,23.1 "/>
  <path fill="#C5C3C0" d="M 32.413 49.702 L 29.324 57.117 C 26.943 54.846 23.718 53.48 20.902 53.48 C 17.685 53.48 15.692 55.301 15.692 58.56 C 15.692 62.514 19.23 63.436 24.487 66.014 C 30.139 68.742 33.387 71.95 33.387 79.018 C 33.387 88.689 27.818 94.117 19.814 94.117 C 15.913 94.117 11.208 92.744 7.591 89.738 L 9.845 81.515 C 12.783 83.634 16.297 84.891 19.432 84.891 C 23.655 84.891 25.663 82.763 25.663 79.619 C 25.663 76.019 22.601 74.936 17.658 72.701 C 12.027 70.133 8.122 66.762 8.122 58.942 C 8.122 50.118 13.298 45.055 20.741 45.055 C 25.932 45.055 30.101 47.298 32.413 49.702" style=""/>
  <polygon fill="#C5C3C0" points="56.567 54.387 56.567 93.302 49.294 93.302 49.294 54.387 38.732 54.387 38.732 45.868 67.099 45.868 67.099 54.387" style=""/>
  <polygon fill="#C5C3C0" points="82.435 54.363 82.435 65.05 96.357 65.05 96.357 73.572 82.435 73.572 82.435 84.706 98.588 84.706 98.588 93.302 75.16 93.302 75.16 45.868 98.588 45.868 98.588 54.363" style=""/>
  <path fill="#C5C3C0" d="M 114.829 84.095 L 112.527 93.305 L 104.9 93.305 L 117.927 45.871 L 125.25 45.871 L 138.646 93.302 L 130.759 93.302 L 128.411 84.095 L 114.829 84.095 Z M 121.548 57.184 L 116.804 76.178 L 126.391 76.178 L 121.548 57.184 Z" style=""/>
  <polygon fill="#C5C3C0" points="175.984 64.201 166.477 91.925 162.37 91.925 153.018 64.449 153.018 93.302 146.052 93.302 146.052 45.868 153.003 45.868 164.677 80.11 175.939 45.868 182.951 45.868 182.951 93.302 175.984 93.302" style=""/>
<style xmlns="" id="PHTStyle">.qtip-content { font-family: "Times New Roman"; font-size: 17px; line-height: 19px;} .qtip-max-width { max-width: 700px; }</style></svg>